<svg version="1.1" id="Layer_1" xmlns="http://www.w3.org/2000/svg" xmlns:xlink="http://www.w3.org/1999/xlink" x="0px" y="0px"
	 width="100%" viewBox="0 0 512 512" enable-background="new 0 0 512 512" xml:space="preserve">
<path fill="#000000" opacity="1.000000" stroke="none" 
	d="
M335.000000,513.000000 
	C223.360458,513.000000 112.220909,513.000000 1.040681,513.000000 
	C1.040681,342.402100 1.040681,171.804184 1.040681,1.103135 
	C171.556213,1.103135 342.112518,1.103135 512.834412,1.103135 
	C512.834412,171.666534 512.834412,342.333252 512.834412,513.000000 
	C453.804169,513.000000 394.652069,513.000000 335.000000,513.000000 
M71.933632,132.675537 
	C70.956207,136.256882 69.156876,139.832199 69.130470,143.420532 
	C68.904854,174.078873 68.998428,204.739563 69.001472,235.399551 
	C69.002876,249.595856 78.209572,258.467590 92.360794,256.831421 
	C100.543526,255.885315 109.460678,250.134354 109.862350,240.810638 
	C110.256409,231.663818 109.474358,222.463211 109.133263,213.289032 
	C108.928688,207.786758 108.580055,202.289856 108.235916,195.623444 
	C110.598190,198.618164 112.206886,200.816315 113.976929,202.875824 
	C125.649902,216.457916 137.330063,230.034042 149.061264,243.565857 
	C162.434250,258.991486 175.890503,274.344910 189.253296,289.779327 
	C194.441055,295.771332 199.390793,301.969879 204.598145,307.944305 
	C209.528336,313.600769 215.749451,318.482971 223.240479,317.683441 
	C235.384964,316.387238 244.004059,308.762909 244.001999,295.150238 
	C243.994507,245.827957 244.005600,196.505676 243.996201,147.183395 
	C243.993225,131.555954 234.371216,122.698959 218.878738,124.013313 
	C211.388321,124.648788 202.083267,133.705139 202.091721,141.139618 
	C202.105637,153.390045 202.722855,165.638733 202.991196,177.890228 
	C203.388153,196.013550 203.717300,214.138428 204.040573,232.263275 
	C204.115982,236.490631 204.051712,240.720459 204.051712,246.286179 
	C197.171539,238.343674 191.129623,231.488907 185.220825,224.521240 
	C174.883331,212.331238 164.650330,200.052673 154.330490,187.847626 
	C145.916016,177.896027 137.494659,167.949173 128.973389,158.089203 
	C120.556412,148.349899 112.168121,138.575592 103.410179,129.148346 
	C101.212471,126.782692 97.811600,124.736832 94.677223,124.192032 
	C86.000870,122.683929 78.221016,124.913795 71.933632,132.675537 
M345.992981,255.971451 
	C348.480438,253.671997 351.338867,251.661011 353.390411,249.022598 
	C361.762421,238.255676 369.909851,227.313568 378.098938,216.405106 
	C392.135773,197.706924 406.284576,179.089798 420.068085,160.206314 
	C423.875275,154.990479 427.470673,149.333908 425.069031,142.007446 
	C423.013947,135.738022 419.121307,130.846298 413.043762,129.351181 
	C406.453125,127.729820 399.522766,128.515533 394.801392,134.719437 
	C383.352356,149.763443 371.966736,164.855759 360.555756,179.928772 
	C353.257965,189.568588 345.960449,199.208664 338.553589,208.992905 
	C324.549835,190.517960 310.820099,172.376236 297.056091,154.260544 
	C291.892853,147.464920 286.885437,140.530121 281.370880,134.028671 
	C276.733490,128.561340 270.319427,127.446869 263.800598,129.808136 
	C256.255371,132.541183 251.908127,137.783615 251.932190,146.477783 
	C252.071014,196.636200 251.995346,246.795181 252.004349,296.953979 
	C252.006149,307.056549 259.505707,314.950104 269.086823,314.995667 
	C279.000244,315.042786 286.953491,307.217651 286.969147,297.194183 
	C287.016174,267.032623 286.990448,236.870956 286.993073,206.709320 
	C286.993225,205.055176 286.993073,203.401031 286.993073,201.746872 
	C299.336639,216.875565 310.504059,232.092438 321.810120,247.205597 
	C328.755402,256.489563 335.977783,259.105042 345.992981,255.971451 
M282.947723,363.917664 
	C288.637329,361.500885 285.079010,357.020477 285.948639,352.923981 
	C277.718201,352.923981 270.127411,352.923981 262.352295,352.923981 
	C262.352295,347.423035 262.352295,342.384399 262.352295,336.755310 
	C271.070099,336.755310 279.448029,336.755310 287.769409,336.755310 
	C287.962128,333.852417 288.115448,331.542786 288.367859,327.740112 
	C294.458710,339.153137 299.347717,349.418854 305.297211,359.027954 
	C308.611267,364.380524 309.155518,369.692719 309.023376,375.516663 
	C308.908325,380.586792 308.999390,385.661591 308.999390,390.584961 
	C313.181946,390.584961 316.419952,390.584961 320.001953,390.584961 
	C320.001953,383.391327 319.949127,376.584442 320.037933,369.779419 
	C320.061035,368.007385 320.104919,366.031494 320.862762,364.509521 
	C323.708923,358.793793 326.862213,353.231323 329.885468,347.603363 
	C333.641022,340.612274 337.381653,333.613159 341.459656,325.999695 
	C338.157745,325.999695 335.783234,326.314606 333.527832,325.930450 
	C329.531342,325.249695 327.651642,327.162598 326.077301,330.498932 
	C322.711273,337.632294 319.033508,344.618591 315.050629,352.524200 
	C312.496429,347.733032 310.188721,343.780914 308.230743,339.662445 
	C301.774231,326.081757 301.822815,326.041840 286.813507,326.007721 
	C275.038788,325.980927 263.263916,326.002350 251.012146,326.002350 
	C251.012146,346.933136 250.967545,367.365479 251.139236,387.796021 
	C251.148163,388.856537 252.873306,390.597076 254.024200,390.810822 
	C256.520325,391.274414 259.162109,390.953735 262.190460,390.953735 
	C262.190460,381.606506 262.190460,373.024200 262.190460,363.982758 
	C269.116913,363.982758 275.576782,363.982758 282.947723,363.917664 
M389.005310,380.437408 
	C389.007843,381.935486 389.189606,383.459167 388.980164,384.927002 
	C388.279846,389.834778 390.425903,391.140930 395.156586,391.133881 
	C399.752106,391.127045 401.167633,389.801270 401.102081,385.146698 
	C400.848969,367.172913 401.004944,349.193512 400.987762,331.216187 
	C400.986206,329.605438 400.835907,327.994781 400.758636,326.463043 
	C391.443726,325.273438 391.705261,325.417358 387.721619,332.656189 
	C382.868561,341.474731 377.519196,350.020142 372.173889,359.039062 
	C366.261566,349.379150 360.671814,340.114380 354.943604,330.936005 
	C351.421509,325.292450 350.105103,324.921783 343.323151,326.802917 
	C343.323151,348.043762 343.323151,369.273712 343.323151,390.712402 
	C344.761993,390.814880 345.893707,390.945374 347.027618,390.968048 
	C353.993500,391.107300 353.997345,391.099182 354.000977,384.239746 
	C354.005219,376.249817 354.002106,368.259918 354.002197,360.269989 
	C354.002228,357.771271 354.002197,355.272522 354.002197,352.773804 
	C359.053986,359.685944 363.096985,366.596222 367.195526,373.473419 
	C370.130066,378.397461 373.345581,378.279358 376.280640,373.254639 
	C380.216705,366.516174 384.205566,359.808502 388.171722,353.087585 
	C388.453583,353.149048 388.735413,353.210510 389.017273,353.271942 
	C389.017273,361.999908 389.017273,370.727844 389.005310,380.437408 
M108.896980,390.997711 
	C110.489227,390.906433 112.081482,390.815155 113.738152,390.720184 
	C113.738152,369.040405 113.738152,347.791931 113.738152,326.368835 
	C110.099533,326.368835 106.733810,326.368835 102.824921,326.368835 
	C102.824921,339.059570 102.824921,351.388641 102.824921,364.406281 
	C101.208061,362.670715 100.067299,361.682190 99.210457,360.489685 
	C91.357819,349.560547 83.448303,338.669220 75.806961,327.593292 
	C73.741013,324.598785 70.960228,324.415344 68.443321,325.306915 
	C67.196976,325.748444 66.166756,328.638947 66.150848,330.431335 
	C65.986839,348.919037 66.136879,367.409485 65.982193,385.897308 
	C65.948662,389.905334 67.461739,391.111450 71.281837,391.044373 
	C77.983231,390.926727 77.993912,391.100189 77.997978,384.511475 
	C78.004486,373.953857 77.999718,363.396240 77.999718,351.894836 
	C79.426643,353.145660 80.147156,353.569305 80.584770,354.191803 
	C88.245201,365.088562 95.824089,376.043091 103.555305,386.889160 
	C104.706299,388.503876 106.538910,389.632690 108.896980,390.997711 
M142.860535,390.999786 
	C146.191940,391.000427 149.524536,390.943542 152.854492,391.013367 
	C160.481262,391.173248 166.325546,387.719391 169.745499,381.239777 
	C172.053207,376.867462 173.442291,371.822388 174.300812,366.913605 
	C175.910004,357.712524 175.474762,348.486938 171.962753,339.670380 
	C168.238876,330.322021 160.807220,325.749451 151.159744,325.092682 
	C140.118774,324.341034 130.974411,327.935211 125.825302,338.572418 
	C119.893616,350.826263 119.951981,363.461731 124.604736,375.917267 
	C127.535912,383.764099 132.887360,389.757385 142.860535,390.999786 
M422.001068,345.446350 
	C422.001068,342.701782 422.001068,339.957214 422.001068,336.976624 
	C428.318451,336.976624 433.800293,336.976654 439.282135,336.976624 
	C448.360901,336.976593 448.368713,336.976196 447.952332,328.058197 
	C447.923920,327.450287 447.649506,326.853851 447.496155,326.277191 
	C435.343445,326.277191 423.434998,326.277191 411.400787,326.277191 
	C411.400787,347.893158 411.400787,369.227722 411.400787,390.711426 
	C423.705780,390.711426 435.608429,390.711426 447.615540,390.711426 
	C447.615540,387.071045 447.615540,383.706238 447.615540,379.883392 
	C438.988892,379.883392 430.741089,379.883392 422.378174,379.883392 
	C422.378174,374.045349 422.378174,368.677155 422.378174,362.796204 
	C430.324921,362.796204 437.904297,362.796204 445.727814,362.796204 
	C445.727814,359.037018 445.727814,355.799713 445.727814,351.932251 
	C437.789429,351.932251 430.076202,351.932251 422.001068,351.932251 
	C422.001068,349.675415 422.001068,348.037170 422.001068,345.446350 
M84.836296,276.025299 
	C80.602783,278.993713 75.074577,281.095062 72.391457,285.101715 
	C65.758072,295.007172 68.804451,304.212494 76.664520,312.677887 
	C82.975296,319.474701 95.339577,319.185822 103.350853,313.038361 
	C109.012207,308.694122 112.156044,302.562805 111.599609,295.930176 
	C110.491844,282.725922 99.413834,272.381104 84.836296,276.025299 
M191.049179,351.506348 
	C191.052872,361.337921 191.056503,371.169495 191.060333,381.001068 
	C191.064484,391.698730 191.064850,391.702179 201.785599,390.772400 
	C202.065536,390.748169 202.320786,390.439484 203.077667,389.939972 
	C203.077667,372.674713 203.077667,355.088745 203.077667,336.977936 
	C206.688736,336.977936 209.811172,336.978027 212.933609,336.977936 
	C222.429810,336.977600 222.433365,336.977325 221.813797,327.367920 
	C221.795212,327.079712 221.523346,326.807831 221.091156,326.022247 
	C205.903351,326.022247 190.444839,325.883179 174.991928,326.115967 
	C170.915817,326.177338 172.351334,329.955963 172.117798,332.345245 
	C171.863770,334.944153 172.480499,337.013885 175.777939,336.977905 
	C180.721359,336.923981 185.665802,336.963867 191.069397,336.963867 
	C191.069397,341.916229 191.069397,346.213379 191.049179,351.506348 
M228.000839,378.483337 
	C228.000839,382.559845 228.000839,386.636322 228.000839,390.584106 
	C232.095886,390.584106 235.330994,390.584106 238.575623,390.584106 
	C238.575623,368.859253 238.575623,347.529663 238.575623,326.345276 
	C234.893127,326.345276 231.638901,326.345276 228.000458,326.345276 
	C228.000458,343.620819 228.000458,360.554230 228.000839,378.483337 
z"/>
<path fill="#607D8B" opacity="1.000000" stroke="none" 
	d="
M72.192505,132.407654 
	C78.221016,124.913795 86.000870,122.683929 94.677223,124.192032 
	C97.811600,124.736832 101.212471,126.782692 103.410179,129.148346 
	C112.168121,138.575592 120.556412,148.349899 128.973389,158.089203 
	C137.494659,167.949173 145.916016,177.896027 154.330490,187.847626 
	C164.650330,200.052673 174.883331,212.331238 185.220825,224.521240 
	C191.129623,231.488907 197.171539,238.343674 204.051712,246.286179 
	C204.051712,240.720459 204.115982,236.490631 204.040573,232.263275 
	C203.717300,214.138428 203.388153,196.013550 202.991196,177.890228 
	C202.722855,165.638733 202.105637,153.390045 202.091721,141.139618 
	C202.083267,133.705139 211.388321,124.648788 218.878738,124.013313 
	C234.371216,122.698959 243.993225,131.555954 243.996201,147.183395 
	C244.005600,196.505676 243.994507,245.827957 244.001999,295.150238 
	C244.004059,308.762909 235.384964,316.387238 223.240479,317.683441 
	C215.749451,318.482971 209.528336,313.600769 204.598145,307.944305 
	C199.390793,301.969879 194.441055,295.771332 189.253296,289.779327 
	C175.890503,274.344910 162.434250,258.991486 149.061264,243.565857 
	C137.330063,230.034042 125.649902,216.457916 113.976929,202.875824 
	C112.206886,200.816315 110.598190,198.618164 108.235916,195.623444 
	C108.580055,202.289856 108.928688,207.786758 109.133263,213.289032 
	C109.474358,222.463211 110.256409,231.663818 109.862350,240.810638 
	C109.460678,250.134354 100.543526,255.885315 92.360794,256.831421 
	C78.209572,258.467590 69.002876,249.595856 69.001472,235.399551 
	C68.998428,204.739563 68.904854,174.078873 69.130470,143.420532 
	C69.156876,139.832199 70.956207,136.256882 72.192505,132.407654 
z"/>
<path fill="#607D8B" opacity="1.000000" stroke="none" 
	d="
M345.586548,256.005585 
	C335.977783,259.105042 328.755402,256.489563 321.810120,247.205597 
	C310.504059,232.092438 299.336639,216.875565 286.993073,201.746872 
	C286.993073,203.401031 286.993225,205.055176 286.993073,206.709320 
	C286.990448,236.870956 287.016174,267.032623 286.969147,297.194183 
	C286.953491,307.217651 279.000244,315.042786 269.086823,314.995667 
	C259.505707,314.950104 252.006149,307.056549 252.004349,296.953979 
	C251.995346,246.795181 252.071014,196.636200 251.932190,146.477783 
	C251.908127,137.783615 256.255371,132.541183 263.800598,129.808136 
	C270.319427,127.446869 276.733490,128.561340 281.370880,134.028671 
	C286.885437,140.530121 291.892853,147.464920 297.056091,154.260544 
	C310.820099,172.376236 324.549835,190.517960 338.553589,208.992905 
	C345.960449,199.208664 353.257965,189.568588 360.555756,179.928772 
	C371.966736,164.855759 383.352356,149.763443 394.801392,134.719437 
	C399.522766,128.515533 406.453125,127.729820 413.043762,129.351181 
	C419.121307,130.846298 423.013947,135.738022 425.069031,142.007446 
	C427.470673,149.333908 423.875275,154.990479 420.068085,160.206314 
	C406.284576,179.089798 392.135773,197.706924 378.098938,216.405106 
	C369.909851,227.313568 361.762421,238.255676 353.390411,249.022598 
	C351.338867,251.661011 348.480438,253.671997 345.586548,256.005585 
z"/>
<path fill="#5F7D8B" opacity="1.000000" stroke="none" 
	d="
M282.492188,363.950195 
	C275.576782,363.982758 269.116913,363.982758 262.190460,363.982758 
	C262.190460,373.024200 262.190460,381.606506 262.190460,390.953735 
	C259.162109,390.953735 256.520325,391.274414 254.024200,390.810822 
	C252.873306,390.597076 251.148163,388.856537 251.139236,387.796021 
	C250.967545,367.365479 251.012146,346.933136 251.012146,326.002350 
	C263.263916,326.002350 275.038788,325.980927 286.813507,326.007721 
	C301.822815,326.041840 301.774231,326.081757 308.230743,339.662445 
	C310.188721,343.780914 312.496429,347.733032 315.050629,352.524200 
	C319.033508,344.618591 322.711273,337.632294 326.077301,330.498932 
	C327.651642,327.162598 329.531342,325.249695 333.527832,325.930450 
	C335.783234,326.314606 338.157745,325.999695 341.459656,325.999695 
	C337.381653,333.613159 333.641022,340.612274 329.885468,347.603363 
	C326.862213,353.231323 323.708923,358.793793 320.862762,364.509521 
	C320.104919,366.031494 320.061035,368.007385 320.037933,369.779419 
	C319.949127,376.584442 320.001953,383.391327 320.001953,390.584961 
	C316.419952,390.584961 313.181946,390.584961 308.999390,390.584961 
	C308.999390,385.661591 308.908325,380.586792 309.023376,375.516663 
	C309.155518,369.692719 308.611267,364.380524 305.297211,359.027954 
	C299.347717,349.418854 294.458710,339.153137 288.367859,327.740112 
	C288.115448,331.542786 287.962128,333.852417 287.769409,336.755310 
	C279.448029,336.755310 271.070099,336.755310 262.352295,336.755310 
	C262.352295,342.384399 262.352295,347.423035 262.352295,352.923981 
	C270.127411,352.923981 277.718201,352.923981 285.948639,352.923981 
	C285.079010,357.020477 288.637329,361.500885 282.492188,363.950195 
z"/>
<path fill="#5F7C8A" opacity="1.000000" stroke="none" 
	d="
M389.011292,379.946594 
	C389.017273,370.727844 389.017273,361.999908 389.017273,353.271942 
	C388.735413,353.210510 388.453583,353.149048 388.171722,353.087585 
	C384.205566,359.808502 380.216705,366.516174 376.280640,373.254639 
	C373.345581,378.279358 370.130066,378.397461 367.195526,373.473419 
	C363.096985,366.596222 359.053986,359.685944 354.002197,352.773804 
	C354.002197,355.272522 354.002228,357.771271 354.002197,360.269989 
	C354.002106,368.259918 354.005219,376.249817 354.000977,384.239746 
	C353.997345,391.099182 353.993500,391.107300 347.027618,390.968048 
	C345.893707,390.945374 344.761993,390.814880 343.323151,390.712402 
	C343.323151,369.273712 343.323151,348.043762 343.323151,326.802917 
	C350.105103,324.921783 351.421509,325.292450 354.943604,330.936005 
	C360.671814,340.114380 366.261566,349.379150 372.173889,359.039062 
	C377.519196,350.020142 382.868561,341.474731 387.721619,332.656189 
	C391.705261,325.417358 391.443726,325.273438 400.758636,326.463043 
	C400.835907,327.994781 400.986206,329.605438 400.987762,331.216187 
	C401.004944,349.193512 400.848969,367.172913 401.102081,385.146698 
	C401.167633,389.801270 399.752106,391.127045 395.156586,391.133881 
	C390.425903,391.140930 388.279846,389.834778 388.980164,384.927002 
	C389.189606,383.459167 389.007843,381.935486 389.011292,379.946594 
z"/>
<path fill="#5E7D8A" opacity="1.000000" stroke="none" 
	d="
M108.476578,390.992004 
	C106.538910,389.632690 104.706299,388.503876 103.555305,386.889160 
	C95.824089,376.043091 88.245201,365.088562 80.584770,354.191803 
	C80.147156,353.569305 79.426643,353.145660 77.999718,351.894836 
	C77.999718,363.396240 78.004486,373.953857 77.997978,384.511475 
	C77.993912,391.100189 77.983231,390.926727 71.281837,391.044373 
	C67.461739,391.111450 65.948662,389.905334 65.982193,385.897308 
	C66.136879,367.409485 65.986839,348.919037 66.150848,330.431335 
	C66.166756,328.638947 67.196976,325.748444 68.443321,325.306915 
	C70.960228,324.415344 73.741013,324.598785 75.806961,327.593292 
	C83.448303,338.669220 91.357819,349.560547 99.210457,360.489685 
	C100.067299,361.682190 101.208061,362.670715 102.824921,364.406281 
	C102.824921,351.388641 102.824921,339.059570 102.824921,326.368835 
	C106.733810,326.368835 110.099533,326.368835 113.738152,326.368835 
	C113.738152,347.791931 113.738152,369.040405 113.738152,390.720184 
	C112.081482,390.815155 110.489227,390.906433 108.476578,390.992004 
z"/>
<path fill="#5F7C8A" opacity="1.000000" stroke="none" 
	d="
M142.408813,390.998413 
	C132.887360,389.757385 127.535912,383.764099 124.604736,375.917267 
	C119.951981,363.461731 119.893616,350.826263 125.825302,338.572418 
	C130.974411,327.935211 140.118774,324.341034 151.159744,325.092682 
	C160.807220,325.749451 168.238876,330.322021 171.962753,339.670380 
	C175.474762,348.486938 175.910004,357.712524 174.300812,366.913605 
	C173.442291,371.822388 172.053207,376.867462 169.745499,381.239777 
	C166.325546,387.719391 160.481262,391.173248 152.854492,391.013367 
	C149.524536,390.943542 146.191940,391.000427 142.408813,390.998413 
M146.849152,336.078186 
	C141.815186,337.000458 138.031738,339.634308 136.219589,344.491882 
	C132.414413,354.691833 132.465576,364.967468 137.444458,374.667938 
	C141.716095,382.990479 154.218384,383.385101 159.177292,375.423767 
	C164.829254,366.349823 164.659424,356.526398 161.410370,346.590179 
	C159.225891,339.909546 154.956192,336.027740 146.849152,336.078186 
z"/>
<path fill="#5F7D8B" opacity="1.000000" stroke="none" 
	d="
M422.001068,345.922638 
	C422.001068,348.037170 422.001068,349.675415 422.001068,351.932251 
	C430.076202,351.932251 437.789429,351.932251 445.727814,351.932251 
	C445.727814,355.799713 445.727814,359.037018 445.727814,362.796204 
	C437.904297,362.796204 430.324921,362.796204 422.378174,362.796204 
	C422.378174,368.677155 422.378174,374.045349 422.378174,379.883392 
	C430.741089,379.883392 438.988892,379.883392 447.615540,379.883392 
	C447.615540,383.706238 447.615540,387.071045 447.615540,390.711426 
	C435.608429,390.711426 423.705780,390.711426 411.400787,390.711426 
	C411.400787,369.227722 411.400787,347.893158 411.400787,326.277191 
	C423.434998,326.277191 435.343445,326.277191 447.496155,326.277191 
	C447.649506,326.853851 447.923920,327.450287 447.952332,328.058197 
	C448.368713,336.976196 448.360901,336.976593 439.282135,336.976624 
	C433.800293,336.976654 428.318451,336.976624 422.001068,336.976624 
	C422.001068,339.957214 422.001068,342.701782 422.001068,345.922638 
z"/>
<path fill="#5F7C8A" opacity="1.000000" stroke="none" 
	d="
M85.248947,276.012817 
	C99.413834,272.381104 110.491844,282.725922 111.599609,295.930176 
	C112.156044,302.562805 109.012207,308.694122 103.350853,313.038361 
	C95.339577,319.185822 82.975296,319.474701 76.664520,312.677887 
	C68.804451,304.212494 65.758072,295.007172 72.391457,285.101715 
	C75.074577,281.095062 80.602783,278.993713 85.248947,276.012817 
z"/>
<path fill="#5F7C8A" opacity="1.000000" stroke="none" 
	d="
M191.059296,351.008423 
	C191.069397,346.213379 191.069397,341.916229 191.069397,336.963867 
	C185.665802,336.963867 180.721359,336.923981 175.777939,336.977905 
	C172.480499,337.013885 171.863770,334.944153 172.117798,332.345245 
	C172.351334,329.955963 170.915817,326.177338 174.991928,326.115967 
	C190.444839,325.883179 205.903351,326.022247 221.091156,326.022247 
	C221.523346,326.807831 221.795212,327.079712 221.813797,327.367920 
	C222.433365,336.977325 222.429810,336.977600 212.933609,336.977936 
	C209.811172,336.978027 206.688736,336.977936 203.077667,336.977936 
	C203.077667,355.088745 203.077667,372.674713 203.077667,389.939972 
	C202.320786,390.439484 202.065536,390.748169 201.785599,390.772400 
	C191.064850,391.702179 191.064484,391.698730 191.060333,381.001068 
	C191.056503,371.169495 191.052872,361.337921 191.059296,351.008423 
z"/>
<path fill="#5F7D8B" opacity="1.000000" stroke="none" 
	d="
M228.000641,377.985504 
	C228.000458,360.554230 228.000458,343.620819 228.000458,326.345276 
	C231.638901,326.345276 234.893127,326.345276 238.575623,326.345276 
	C238.575623,347.529663 238.575623,368.859253 238.575623,390.584106 
	C235.330994,390.584106 232.095886,390.584106 228.000839,390.584106 
	C228.000839,386.636322 228.000839,382.559845 228.000641,377.985504 
z"/>
<path fill="#000000" opacity="1.000000" stroke="none" 
	d="
M147.260681,336.047729 
	C154.956192,336.027740 159.225891,339.909546 161.410370,346.590179 
	C164.659424,356.526398 164.829254,366.349823 159.177292,375.423767 
	C154.218384,383.385101 141.716095,382.990479 137.444458,374.667938 
	C132.465576,364.967468 132.414413,354.691833 136.219589,344.491882 
	C138.031738,339.634308 141.815186,337.000458 147.260681,336.047729 
z"/>
</svg>