<?xml version="1.0" standalone="no"?>
<!DOCTYPE svg PUBLIC "-//W3C//DTD SVG 20010904//EN"
 "http://www.w3.org/TR/2001/REC-SVG-20010904/DTD/svg10.dtd">
<svg version="1.0" xmlns="http://www.w3.org/2000/svg"
 width="512.000000pt" height="512.000000pt" viewBox="0 0 512.000000 512.000000"
 preserveAspectRatio="xMidYMid meet">

<g transform="translate(0.000000,512.000000) scale(0.100000,-0.100000)"
fill="#000000" stroke="none">
<path d="M855 3870 c-71 -16 -123 -59 -150 -122 -13 -32 -15 -107 -15 -521 0
-462 1 -487 20 -529 28 -65 87 -115 145 -123 93 -14 205 59 220 143 6 37 -11
443 -20 469 -2 7 -1 15 4 17 4 3 40 -34 79 -83 95 -119 657 -771 747 -867 5
-6 37 -42 70 -80 153 -176 189 -204 262 -204 46 0 133 47 161 88 42 58 43 85
40 892 l-3 775 -28 48 c-41 69 -91 99 -165 99 -86 0 -153 -45 -187 -124 -13
-32 -14 -71 -5 -295 15 -392 24 -823 17 -823 -7 0 -232 261 -752 875 -121 143
-237 277 -258 297 -60 60 -120 82 -182 68z"/>
<path d="M2605 3801 c-16 -10 -41 -31 -55 -45 l-25 -28 0 -812 0 -813 28 -36
c15 -20 41 -44 57 -52 75 -39 181 -1 219 78 20 42 21 56 21 551 0 344 3 505
10 501 6 -4 96 -120 200 -259 104 -140 203 -265 220 -279 48 -41 133 -47 181
-13 21 15 129 154 319 411 85 116 211 284 279 375 124 164 171 244 171 288 0
36 -28 89 -66 122 -30 26 -43 30 -90 30 -33 0 -67 -6 -82 -16 -31 -18 -38 -28
-365 -461 -133 -178 -246 -323 -252 -323 -5 0 -68 80 -140 176 -71 97 -145
195 -163 217 -19 23 -86 112 -149 199 -65 90 -131 170 -152 183 -45 31 -121
34 -166 6z"/>
<path d="M865 2360 c-76 -17 -140 -74 -160 -142 -12 -42 -12 -54 1 -90 34 -96
103 -158 177 -158 104 0 207 96 207 194 0 113 -123 220 -225 196z"/>
<path d="M670 1551 l0 -311 41 0 40 0 -3 230 c-3 216 1 261 18 208 7 -24 34
-65 202 -300 84 -118 111 -148 129 -148 l23 0 0 310 0 310 -41 0 -40 0 3 -224
c2 -179 0 -222 -9 -214 -7 6 -13 16 -14 22 0 6 -66 103 -147 216 -123 172
-152 206 -175 208 l-27 3 0 -310z"/>
<path d="M1389 1846 c-85 -30 -137 -101 -159 -215 -14 -73 -13 -110 6 -191 29
-129 99 -197 214 -207 126 -12 222 50 257 165 23 76 23 218 0 295 -40 132
-183 201 -318 153z m170 -83 c14 -10 37 -41 51 -69 22 -43 25 -62 25 -154 0
-89 -3 -112 -23 -150 -32 -64 -64 -84 -134 -85 -70 0 -102 21 -137 91 -22 42
-25 63 -26 149 0 135 27 198 100 231 39 18 110 12 144 -13z"/>
<path d="M1730 1815 l0 -35 95 0 95 0 0 -270 0 -270 40 0 40 0 2 268 3 267 93
3 92 3 0 34 0 35 -230 0 -230 0 0 -35z"/>
<path d="M2280 1545 l0 -305 45 0 45 0 0 305 0 305 -45 0 -45 0 0 -305z"/>
<path d="M2510 1545 l0 -305 45 0 45 0 0 135 0 135 120 0 120 0 0 35 0 34
-117 3 -118 3 -3 98 -3 97 131 0 130 0 0 35 0 35 -175 0 -175 0 0 -305z"/>
<path d="M2900 1844 c0 -4 17 -39 39 -78 21 -39 58 -107 81 -151 24 -44 49
-89 57 -100 9 -14 13 -57 13 -147 l0 -128 45 0 45 0 0 126 0 126 47 87 c25 47
68 125 95 174 26 48 48 89 48 92 0 3 -19 5 -42 5 l-43 0 -67 -129 c-38 -71
-68 -138 -68 -149 0 -12 -4 -24 -10 -27 -6 -3 -10 4 -10 17 0 13 -31 82 -69
153 l-68 130 -47 3 c-25 2 -46 0 -46 -4z"/>
<path d="M3440 1546 l0 -306 35 0 35 0 2 203 c2 126 7 202 13 202 6 0 46 -60
90 -133 51 -86 84 -132 94 -130 15 3 37 37 132 208 l59 105 0 -228 0 -227 40
0 40 0 0 305 0 305 -33 0 c-32 0 -36 -4 -124 -157 -50 -87 -94 -171 -97 -186
-8 -33 -22 -28 -31 11 -4 15 -48 95 -99 177 -85 138 -95 150 -124 153 l-32 3
0 -305z"/>
<path d="M4120 1545 l0 -305 170 0 170 0 0 35 0 34 -132 3 -133 3 0 100 0 100
118 3 117 3 0 34 0 34 -117 3 -118 3 0 90 0 90 128 3 127 3 0 34 0 35 -165 0
-165 0 0 -305z"/>
</g>
</svg>
